<svg width="110" height="62" viewBox="0 0 110 62" fill="none" xmlns="http://www.w3.org/2000/svg">
<path d="M33.396 0.5H101C105.694 0.5 109.5 4.30558 109.5 9V53C109.5 57.6944 105.694 61.5 101 61.5H33.396C30.1072 61.5 26.9757 60.0919 24.7932 57.6316L7.34963 37.968C3.82268 33.9921 3.82268 28.0079 7.34963 24.032L24.7932 4.36843C26.9757 1.90813 30.1072 0.5 33.396 0.5Z" fill="#D9D9D9" stroke="#646464"/>
<path d="M75.2656 15L79 18.7267L67.7344 29.9689L79 41.2112L75.2656 45L64 33.7578L52.7344 45L49 41.2112L60.2033 29.9689L49 18.7267L52.7344 15L64 26.2422L75.2656 15Z" fill="#646464"/>
</svg>
