<svg width="34" height="34" viewBox="0 0 34 34" fill="none" xmlns="http://www.w3.org/2000/svg">
<path d="M27.3337 26.9997C25.4837 26.9997 24.0003 28.483 24.0003 30.333C24.0003 31.2171 24.3515 32.0649 24.9766 32.69C25.6018 33.3152 26.4496 33.6663 27.3337 33.6663C28.2177 33.6663 29.0656 33.3152 29.6907 32.69C30.3158 32.0649 30.667 31.2171 30.667 30.333C30.667 28.483 29.167 26.9997 27.3337 26.9997ZM0.666992 0.333008V3.66634H4.00033L10.0003 16.3163L7.73366 20.3997C7.48366 20.8663 7.33366 21.4163 7.33366 21.9997C7.33366 22.8837 7.68485 23.7316 8.30997 24.3567C8.93509 24.9818 9.78294 25.333 10.667 25.333H30.667V21.9997H11.367C11.2565 21.9997 11.1505 21.9558 11.0724 21.8776C10.9942 21.7995 10.9503 21.6935 10.9503 21.583C10.9503 21.4997 10.967 21.433 11.0003 21.383L12.5003 18.6663H24.917C26.167 18.6663 27.267 17.9663 27.8337 16.9497L33.8003 6.16634C33.917 5.89967 34.0003 5.61634 34.0003 5.33301C34.0003 4.89098 33.8247 4.46706 33.5122 4.1545C33.1996 3.84194 32.7757 3.66634 32.3337 3.66634H7.68366L6.11699 0.333008H0.666992ZM10.667 26.9997C8.81699 26.9997 7.33366 28.483 7.33366 30.333C7.33366 31.2171 7.68485 32.0649 8.30997 32.69C8.93509 33.3152 9.78294 33.6663 10.667 33.6663C11.551 33.6663 12.3989 33.3152 13.024 32.69C13.6491 32.0649 14.0003 31.2171 14.0003 30.333C14.0003 28.483 12.5003 26.9997 10.667 26.9997Z" fill="#4E9912"/>
</svg>
