<svg width="187" height="187" viewBox="0 0 187 187" fill="none" xmlns="http://www.w3.org/2000/svg">
<path d="M186.575 176.151L22.7371 12.3125L16.4167 5.99208L10.4246 0L0 10.4246L36.0346 46.4592L54.175 84.71L43.0938 104.82C41.7804 107.119 41.0417 109.827 41.0417 112.7C41.0417 121.73 48.4292 129.117 57.4583 129.117H118.692L130.02 140.445C125.916 143.4 123.207 148.242 123.207 153.742C123.207 162.771 130.512 170.159 139.542 170.159C145.041 170.159 149.884 167.45 152.839 163.264L176.151 186.575L186.575 176.151ZM60.9058 112.7C59.7567 112.7 58.8537 111.797 58.8537 110.648L59.1 109.663L66.4875 96.2837H85.8592L102.276 112.7H60.9058ZM127.64 96.2837C133.796 96.2837 139.213 92.9183 142.004 87.8292L171.39 34.5571C172.047 33.4079 172.375 32.0125 172.375 30.6171C172.375 26.1025 168.681 22.4087 164.167 22.4087H53.6825L127.64 96.2837ZM57.4583 137.325C48.4292 137.325 41.1237 144.713 41.1237 153.742C41.1237 162.771 48.4292 170.159 57.4583 170.159C66.4875 170.159 73.875 162.771 73.875 153.742C73.875 144.713 66.4875 137.325 57.4583 137.325Z" fill="#D9D9D9"/>
</svg>
