<svg width="256" height="56" viewBox="0 0 256 56" fill="none" xmlns="http://www.w3.org/2000/svg">
<path fill-rule="evenodd" clip-rule="evenodd" d="M175.813 15.9505C176.192 15.9505 176.388 15.8528 176.388 15.6001C176.388 15.5465 173.206 10.3889 166.842 0.127189C166.802 0.08692 166.755 0.0550082 166.703 0.0333101C166.65 0.0116121 166.594 0.000546531 166.538 0.000813761H164.062C163.918 0.00805335 163.778 0.0515245 163.654 0.127189L140.261 15.4737C140.106 15.6001 140.008 15.6978 140.008 15.7782C140.008 15.8586 140.135 15.9505 140.388 15.9505H158.192C158.302 15.9655 158.414 15.9438 158.511 15.8888C158.608 15.8338 158.683 15.7484 158.726 15.646C159.358 14.2044 159.686 13.4693 159.686 13.4233C159.686 13.3774 159.582 13.2166 159.381 13.2166H147.102L158.548 5.6237L165.153 15.8528C165.189 15.8902 165.233 15.9185 165.282 15.9355C165.331 15.9525 165.384 15.9576 165.435 15.9505H175.813ZM130.825 2.74046H137.504C137.786 2.74046 137.987 2.66581 138.079 2.46479C138.739 1.02318 139.067 0.25929 139.067 0.236316C139.067 0.0812421 138.969 0.00656285 138.762 0.00656285H116.391C116.276 -0.00665328 116.159 0.0153598 116.057 0.0696976C115.954 0.124035 115.871 0.208166 115.817 0.310984C115.156 1.78131 114.858 2.53946 114.858 2.53946C114.858 2.69453 114.955 2.74046 115.156 2.74046H121.641C117.793 11.4016 115.897 15.7322 115.897 15.7552C115.897 15.8815 115.972 15.9562 116.179 15.9562H124.559C124.667 15.9663 124.776 15.9424 124.871 15.8879C124.966 15.8334 125.041 15.7509 125.087 15.6518L130.825 2.74046ZM92.5673 5.88213C92.5727 5.5476 92.6511 5.2183 92.7971 4.91723L94.9968 0.00656285H85.5258L83.4007 4.76789C83.3498 5.12401 83.2573 5.47296 83.125 5.8075C82.8985 6.42376 82.8852 7.09816 83.0872 7.72289C83.2892 8.34762 83.6949 8.88658 84.2393 9.25358C85.0993 9.7215 86.0694 9.9496 87.0478 9.91406H98.3395L95.6573 15.939H104.491L111.578 0.0123119H102.745L99.5571 7.18016H96.6854C96.3224 7.17283 95.96 7.14601 95.5999 7.09978C95.1447 7.05997 94.6945 6.97532 94.2559 6.84706C93.8558 6.76862 93.4689 6.63322 93.1072 6.44501C92.7454 6.27845 92.5673 6.10615 92.5673 5.87642V5.88213ZM70.8914 3.95808C70.7828 4.81153 70.5365 5.64174 70.162 6.4163L69.0133 8.94341C68.7089 9.5752 68.439 10.1381 68.1518 10.6148C67.9325 11.0241 67.6707 11.4091 67.3707 11.7635C67.0435 12.209 66.6164 12.5715 66.1236 12.8219C65.6308 13.0723 65.0862 13.2035 64.5334 13.2051H62.506C61.5181 13.2051 61.0414 12.7743 61.0414 11.9128C61.153 10.8652 61.4712 9.85009 61.9776 8.9262L63.1263 6.39906C63.3451 5.88692 63.5904 5.38657 63.8614 4.90002C64.1141 4.475 64.3439 4.14189 64.5449 3.8662C64.8659 3.4919 65.2669 3.1944 65.7182 2.9956C66.1694 2.7968 66.6596 2.70177 67.1524 2.7175H69.1799C70.3113 2.73473 70.8914 3.1425 70.8914 3.95233V3.95808ZM68.4619 15.9562C70.8366 15.9062 73.1234 15.0493 74.9463 13.5267C76.8352 12.0751 78.3252 10.1682 79.2769 7.98426C79.8574 6.80866 80.1768 5.5214 80.2131 4.21079C80.2495 3.61741 80.1493 3.02357 79.9203 2.47495C79.6913 1.92634 79.3396 1.43754 78.8921 1.04613C77.9279 0.31358 76.7358 -0.0546236 75.5264 0.00656285H63.6259C61.2422 0.0449362 58.9443 0.902831 57.1186 2.43604C55.2308 3.88981 53.7428 5.79879 52.7937 7.98426C52.2525 9.15333 51.9499 10.4186 51.9035 11.706C51.8664 12.3071 51.966 12.9088 52.1948 13.4658C52.4236 14.0229 52.7756 14.5209 53.2245 14.9224C54.175 15.6596 55.3607 16.0269 56.5615 15.9562H68.4619ZM41.3987 15.9562C41.514 15.9694 41.6305 15.9474 41.7331 15.8931C41.8356 15.8387 41.9192 15.7546 41.973 15.6518C46.5046 5.4284 48.7848 0.25929 48.7848 0.236316C48.7848 0.0812421 48.6814 0.00656285 48.5034 0.00656285H23.8811C23.7723 0.00147404 23.6644 0.0273725 23.5698 0.0812659C23.4753 0.135159 23.398 0.214846 23.3469 0.310984C18.7866 10.5401 16.5352 15.6805 16.5352 15.7552C16.5352 15.8298 16.6098 15.9562 16.8166 15.9562H25.1963C25.3058 15.9719 25.4173 15.9505 25.5131 15.8953C25.6089 15.8401 25.6834 15.7543 25.7247 15.6518L31.4682 2.79217H38.5327C38.1766 3.57903 37.7745 4.46351 37.384 5.3997C36.9934 6.33588 36.5512 7.27207 36.1204 8.23698C35.6897 9.20188 35.2819 10.1381 34.8798 11.0225C34.4778 11.907 34.1159 12.7456 33.8115 13.4291C33.5071 14.1125 33.2372 14.6926 33.0534 15.1521L32.7777 15.7839C32.7777 15.9103 32.8754 15.9849 33.0534 15.9849L41.3987 15.9562Z" fill="white"/>
<path fill-rule="evenodd" clip-rule="evenodd" d="M164.166 54.9708C164.393 55.0097 164.628 54.975 164.834 54.8717C165.041 54.7685 165.209 54.602 165.315 54.3965L167.262 50.1118C167.305 50.0608 167.328 49.9951 167.325 49.928C167.325 49.6581 167.106 49.503 166.704 49.503H145.052C142.921 49.503 141.841 48.5955 141.841 46.7749C141.841 45.5572 142.415 43.5872 143.633 40.882L145.93 35.8106C147.01 33.3811 148.061 31.681 149.078 30.6415C149.785 29.9139 150.637 29.3436 151.579 28.9675C152.521 28.5915 153.532 28.4181 154.546 28.4589H176.181C176.408 28.4885 176.639 28.4496 176.843 28.3473C177.048 28.245 177.217 28.0838 177.33 27.8846L179.277 23.5425C179.277 23.5138 179.277 23.4563 179.277 23.3644C179.277 23.0888 179.093 22.9681 178.657 22.9681H146.493C141.829 22.9681 137.413 24.5763 133.186 27.7984C129.374 30.7542 126.331 34.5864 124.318 38.9695C123.198 41.3046 122.578 43.8476 122.497 46.436C122.497 49.2044 123.393 51.3582 125.156 52.9089C126.787 54.3046 129.073 54.9995 131.979 54.9995L164.166 54.9708ZM101.229 28.4359H114.938C115.166 28.4713 115.399 28.435 115.604 28.3321C115.81 28.2292 115.979 28.0647 116.087 27.8616C117.42 24.9496 118.097 23.4334 118.097 23.3415C118.097 23.0658 117.879 22.9452 117.477 22.9452H71.7073C71.4804 22.9156 71.2499 22.9545 71.0452 23.0568C70.8406 23.1592 70.6711 23.3203 70.5586 23.5195C69.2319 26.4946 68.5484 27.988 68.5484 28.0167C68.5484 28.2866 68.7667 28.4417 69.2319 28.4417H82.4419C74.5963 45.81 70.6735 54.5133 70.6735 54.5516C70.6735 54.856 70.863 54.9766 71.2478 54.9766H88.4151C88.6326 55.0063 88.8539 54.9669 89.0477 54.8638C89.2416 54.7607 89.398 54.5992 89.4949 54.4022L101.229 28.4359ZM46.8955 40.3077C52.2101 40.3077 56.5943 38.6076 60.0481 35.2075C62.3052 33.0479 63.4482 30.7103 63.4482 28.2809C63.4765 27.4121 63.2599 26.553 62.8232 25.8014C62.3865 25.0499 61.7473 24.4363 60.9785 24.0307C59.4114 23.2387 57.667 22.8629 55.9128 22.9394H15.1341C14.9072 22.9099 14.6766 22.9487 14.472 23.0511C14.2673 23.1534 14.0979 23.3145 13.9854 23.5138C4.66179 44.0754 0 54.4137 0 54.5286C0 54.833 0.212511 54.9536 0.649016 54.9536H17.6612C17.8889 54.9925 18.123 54.9578 18.3296 54.8545C18.5362 54.7512 18.7044 54.5847 18.8099 54.3792L30.5438 28.4474H40.2733C42.6224 28.4474 43.8285 29.1424 43.8285 30.5438C43.7889 30.9071 43.704 31.2641 43.5758 31.6064C43.0404 32.6926 42.1156 33.5374 40.9855 33.9727C39.8588 34.4823 38.638 34.7503 37.4015 34.7595H31.2847C30.6644 34.7595 30.2911 34.9778 30.136 35.3683L28.1947 39.6759C28.1947 39.7046 28.1947 39.7678 28.1947 39.8597C28.1947 40.1297 28.4072 40.2847 28.8093 40.2847L46.8955 40.3077Z" fill="white"/>
<path d="M233.478 17.4316H216.632C215.475 17.4316 214.536 18.3702 214.536 19.528V36.3219C214.536 37.4797 215.475 38.4183 216.632 38.4183H233.478C234.636 38.4183 235.574 37.4797 235.574 36.3219V19.528C235.574 18.3702 234.636 17.4316 233.478 17.4316Z" stroke="#2D590A" stroke-width="2.63051" stroke-miterlimit="3.86"/>
<path d="M220.4 27.8848H198.294C197.136 27.8848 196.197 28.8233 196.197 29.9811V52.0131C196.197 53.1709 197.136 54.1095 198.294 54.1095H220.4C221.558 54.1095 222.497 53.1709 222.497 52.0131V29.9811C222.497 28.8233 221.558 27.8848 220.4 27.8848Z" stroke="#99CC33" stroke-width="2.63051" stroke-miterlimit="3.86"/>
<path d="M251.892 1.73438H229.785C228.627 1.73438 227.688 2.67295 227.688 3.83074V25.8627C227.688 27.0205 228.627 27.9591 229.785 27.9591H251.892C253.049 27.9591 253.988 27.0205 253.988 25.8627V3.83074C253.988 2.67295 253.049 1.73438 251.892 1.73438Z" stroke="#99CC33" stroke-width="2.63051" stroke-miterlimit="3.86"/>
<path d="M220.354 6.9502H208.799C207.641 6.9502 206.702 7.88877 206.702 9.04656V20.5508C206.702 21.7085 207.641 22.6471 208.799 22.6471H220.354C221.512 22.6471 222.451 21.7085 222.451 20.5508V9.04656C222.451 7.88877 221.512 6.9502 220.354 6.9502Z" stroke="white" stroke-width="2.63051" stroke-miterlimit="3.86"/>
<path d="M241.261 33.1514H229.711C228.553 33.1514 227.614 34.0899 227.614 35.2477V46.7519C227.614 47.9097 228.553 48.8483 229.711 48.8483H241.261C242.419 48.8483 243.357 47.9097 243.357 46.7519V35.2477C243.357 34.0899 242.419 33.1514 241.261 33.1514Z" stroke="white" stroke-width="2.63051" stroke-miterlimit="3.86"/>
</svg>
