<?xml version="1.0" encoding="utf-8"?>
<!-- Generator: Adobe Illustrator 26.0.3, SVG Export Plug-In . SVG Version: 6.00 Build 0)  -->
<svg version="1.1" id="Layer_1" xmlns="http://www.w3.org/2000/svg" xmlns:xlink="http://www.w3.org/1999/xlink" x="0px" y="0px"
	 viewBox="0 0 605.8 605.8" style="enable-background:new 0 0 605.8 605.8;" xml:space="preserve">
<style type="text/css">
	.st0{fill:#4E9911;}
</style>
<path class="st0" d="M356.2,131.7h-96.8c-3.3,0-6-2.7-6-6l0,0V53.1c0-3.3,2.7-6,6-6l0,0h96.8c3.3,0,6,2.7,6,6v72.6
	C362.3,129,359.6,131.7,356.2,131.7L356.2,131.7z M265.5,119.7h84.7V59.1h-84.7V119.7L265.5,119.7z"/>
<path class="st0" d="M344.1,482.7h-159c-1.7,0-3.4-0.7-4.5-2c-1.2-1.3-1.7-3-1.6-4.7l24.9-229.9c0.3-3.1,2.9-5.4,6-5.4h134.2
	c3.3,0,6,2.7,6,6v229.9C350.2,480,347.5,482.7,344.1,482.7L344.1,482.7z M191.9,470.6h146.2V252.8H215.5L191.9,470.6z"/>
<path class="st0" d="M440.9,579.5H174.7c-3.3,0-6-2.7-6-6c0-0.2,0-0.4,0-0.7l44.1-407.5c2.8-26,24.8-45.7,50.9-45.6h88.4
	c26.1,0,48,19.6,50.8,45.6l44,407c0.1,0.4,0.1,0.8,0.1,1.2C447,576.8,444.3,579.5,440.9,579.5C441,579.5,440.9,579.5,440.9,579.5z
	 M181.4,567.4h252.7l-43.3-400.8c-2.1-19.8-18.9-34.8-38.8-34.8h-88.5c-19.9,0-36.7,15-38.8,34.8L181.4,567.4z"/>
<path class="st0" d="M428.8,531.1H235.2c-3.3-0.2-5.9-3-5.7-6.4c0.2-3.1,2.6-5.6,5.7-5.7h193.6c3.3,0.2,5.9,3,5.7,6.4
	C434.4,528.5,431.9,530.9,428.8,531.1z"/>
<path class="st0" d="M271.5,446.4c-12.2,0-23.3-9.4-31.2-26.6c-7.2-15.6-11.1-36.3-11.1-58.2s4-42.5,11.1-58.1
	c8-17.1,19-26.6,31.2-26.6s23.2,9.4,31.2,26.6c7.2,15.6,11.1,36.3,11.1,58.1s-4,42.5-11.1,58.2C294.8,437,283.7,446.4,271.5,446.4z
	 M271.5,289.1c-14.3,0-30.2,29.8-30.2,72.6s15.9,72.6,30.2,72.6s30.2-29.8,30.2-72.6S285.8,289.1,271.5,289.1z"/>
<path class="st0" d="M126.3,216.4c-16.7,0-30.2-13.5-30.2-30.2s13.5-30.2,30.2-30.2s30.2,13.5,30.2,30.2l0,0
	C156.5,202.9,143,216.4,126.3,216.4z M126.3,168.1c-10,0-18.2,8.1-18.2,18.1s8.1,18.2,18.1,18.2s18.2-8.1,18.2-18.1l0,0
	C144.4,176.2,136.3,168.1,126.3,168.1z"/>
<path class="st0" d="M501.4,155.9c-23.4,0-42.4-19-42.4-42.4s19-42.4,42.4-42.4s42.4,19,42.4,42.4l0,0
	C543.8,137,524.8,155.9,501.4,155.9z M501.4,83.3c-16.7,0-30.2,13.5-30.2,30.2s13.5,30.2,30.2,30.2c16.7,0,30.2-13.5,30.2-30.2
	S518.1,83.3,501.4,83.3L501.4,83.3z"/>
<rect x="77.9" y="512.9" class="st0" width="24.2" height="24.2"/>
<rect x="102.1" y="488.7" class="st0" width="24.2" height="24.2"/>
<rect x="53.7" y="488.7" class="st0" width="24.2" height="24.2"/>
<rect x="77.9" y="464.5" class="st0" width="24.2" height="24.2"/>
</svg>
