<?xml version="1.0" encoding="utf-8"?>
<!-- Generator: Adobe Illustrator 26.0.3, SVG Export Plug-In . SVG Version: 6.00 Build 0)  -->
<svg version="1.1" id="Layer_1" xmlns="http://www.w3.org/2000/svg" xmlns:xlink="http://www.w3.org/1999/xlink" x="0px" y="0px"
	 viewBox="0 0 605.8 605.8" style="enable-background:new 0 0 605.8 605.8;" xml:space="preserve">
<style type="text/css">
	.st0{fill:#4E9911;}
</style>
<path class="st0" d="M453,518.9c-1.1,0-2.2-0.3-3.2-0.9c-11.5-7.3-24.7-11.1-38.3-11.1H204.1c-13.6,0-26.9,3.9-38.3,11.1
	c-2.8,1.8-6.6,1-8.3-1.9c-0.6-1-0.9-2.1-0.9-3.3V343.5c0.9-83.5,69.3-150.6,152.8-149.7c82.3,0.8,148.9,67.4,149.7,149.7v169.3
	c0,2.2-1.2,4.3-3.2,5.3C455,518.7,454,518.9,453,518.9z M307.8,204.4c-76.8,0.1-139.1,62.3-139.2,139.2v159.1
	c11.1-5.2,23.2-7.9,35.5-8h207.3c12.3,0,24.4,2.7,35.5,8V343.6C446.9,266.8,384.6,204.5,307.8,204.4z"/>
<path class="st0" d="M489.3,584.7c-3.3,0-6.1-2.7-6.1-6.1c0-39.6-32.2-71.8-71.8-71.8H204.1c-39.6,0-71.8,32.2-71.8,71.8
	c0.2,3.3-2.4,6.2-5.7,6.4s-6.2-2.4-6.4-5.7c0-0.2,0-0.4,0-0.6c0-46.3,37.6-83.9,83.9-83.9h207.3c46.3,0,83.9,37.6,83.9,83.9
	C495.4,582,492.7,584.7,489.3,584.7L489.3,584.7z"/>
<path class="st0" d="M307.8,458.5c-43.4-0.1-78.6-35.2-78.7-78.7v-24.3c0-3.3,2.7-6,6-6c34.1,0.1,64.4-21.9,74.8-54.4
	c1-3.2,4.5-4.9,7.7-3.9c0.9,0.3,1.8,0.8,2.5,1.6c12.5,13.2,29.9,20.6,48.1,20.5c2.4,0,4.8-0.1,7.2-0.4c2.8-0.3,5.4,1.3,6.4,4
	c3.1,8.6,4.7,17.6,4.7,26.7v36.3C386.4,423.3,351.2,458.4,307.8,458.5z M241.3,361.4v18.4c0.6,36.8,30.8,66.1,67.6,65.5
	c36-0.6,65-29.6,65.5-65.5v-36.3c0-6.2-0.9-12.3-2.6-18.2c-1.2,0.1-2.4,0.1-3.5,0.1c-18.3,0.1-36-6.3-50-17.9
	C304.7,338.5,275,359.3,241.3,361.4L241.3,361.4z"/>
<path class="st0" d="M307.8,107.6c-23.4,0-42.3-19-42.4-42.4V28.9c0-3.3,2.7-6.1,6-6.1H344c3.3,0,6,2.7,6,6.1v36.3
	C350.1,88.6,331.2,107.5,307.8,107.6z M277.6,34.9v30.2c0,16.7,13.5,30.2,30.2,30.2S338,81.8,338,65.1V34.9H277.6z"/>
<path class="st0" d="M392.5,180.2c-1.9,0-3.7-0.9-4.9-2.4l-36.3-48.4c-2-2.7-1.5-6.5,1.2-8.5s6.5-1.5,8.5,1.2l36.3,48.4
	c2,2.7,1.5,6.5-1.2,8.5C395.1,179.7,393.9,180.1,392.5,180.2L392.5,180.2z"/>
<path class="st0" d="M223.1,180.2c-3.3,0-6-2.8-6-6.1c0-1.3,0.4-2.6,1.2-3.6l36.3-48.4c2.1-2.6,5.9-3,8.5-0.9c2.5,2,3,5.5,1.2,8.1
	L228,177.7C226.8,179.3,225,180.2,223.1,180.2z"/>
<path class="st0" d="M307.8,168.1c-3.3,0-6-2.7-6-6v-24.2c0.2-3.3,3-5.9,6.4-5.7c3.1,0.2,5.6,2.6,5.7,5.7V162
	C313.9,165.3,311.2,168.1,307.8,168.1z"/>
<path class="st0" d="M90,458.5c-23.4,0-42.4-19-42.4-42.4s19-42.4,42.4-42.4s42.4,19,42.4,42.4l0,0
	C132.3,439.5,113.4,458.5,90,458.5z M90,385.9c-16.7,0-30.2,13.5-30.2,30.2s13.5,30.2,30.2,30.2s30.2-13.5,30.2-30.2l0,0
	C120.2,399.4,106.7,385.9,90,385.9z"/>
<path class="st0" d="M525.6,373.8c-16.7,0-30.2-13.5-30.2-30.2s13.5-30.2,30.2-30.2s30.2,13.5,30.2,30.2S542.3,373.8,525.6,373.8
	L525.6,373.8z M525.6,325.4c-10,0-18.2,8.1-18.2,18.2s8.1,18.2,18.2,18.2c10,0,18.2-8.1,18.2-18.2S535.7,325.4,525.6,325.4
	C525.7,325.3,525.6,325.3,525.6,325.4L525.6,325.4z"/>
</svg>
