<?xml version="1.0" encoding="utf-8"?>
<!-- Generator: Adobe Illustrator 26.0.3, SVG Export Plug-In . SVG Version: 6.00 Build 0)  -->
<svg version="1.1" id="Layer_1" xmlns="http://www.w3.org/2000/svg" xmlns:xlink="http://www.w3.org/1999/xlink" x="0px" y="0px"
	 viewBox="0 0 605.8 605.8" style="enable-background:new 0 0 605.8 605.8;" xml:space="preserve">
<style type="text/css">
	.st0{fill:#4E9911;}
</style>
<path class="st0" d="M211,289.1c-3.3,0-6.1-2.7-6.1-6.1V149.9c0.2-3.3,3-5.9,6.4-5.7c3.1,0.2,5.6,2.6,5.7,5.7V283
	C217,286.4,214.3,289.1,211,289.1z"/>
<path class="st0" d="M271.5,155.9H162.6c-3.3,0-6-2.7-6-6l0,0v-36.3c0-3.3,2.7-6,6-6l0,0h108.9c3.3,0,6,2.7,6,6v36.3
	C277.5,153.2,274.8,155.9,271.5,155.9z M168.6,143.9h96.8v-24.2h-96.8L168.6,143.9z"/>
<path class="st0" d="M247.4,119.7h-60.5c-3.3,0-6.1-2.7-6.1-6.1V53.1c0-3.3,2.7-6,6-6l0,0h60.5c3.3,0,6,2.7,6,6v60.5
	C253.4,116.9,250.7,119.6,247.4,119.7z M192.9,107.6h48.4V59.1h-48.5L192.9,107.6z"/>
<path class="st0" d="M380.4,131.7c-3.3,0-6-2.7-6-6V83.4h-127c-3.3-0.2-5.9-3-5.7-6.4c0.2-3.1,2.6-5.6,5.7-5.7h133.1
	c3.3,0,6.1,2.7,6.1,6v48.4C386.5,129.1,383.8,131.8,380.4,131.7C380.5,131.7,380.4,131.7,380.4,131.7z"/>
<path class="st0" d="M319.9,579.5H102.1c-3.3,0-6-2.7-6-6l0,0v-322c0-18.4,4.2-37.9,12.6-57.9l19.1-45.9c0.9-2.3,3.1-3.7,5.6-3.7
	h162.4c2.6,0,4.9,1.7,5.7,4.1l16.8,50.4c5.1,15.4,7.7,31.4,7.7,47.6v327.6C325.9,576.8,323.2,579.5,319.9,579.5z M108.1,567.4h205.7
	V246c0-14.9-2.4-29.7-7.1-43.8L291.3,156h-154l-17.6,42.2c-7.7,18.5-11.6,36.5-11.6,53.3L108.1,567.4L108.1,567.4z"/>
<path class="st0" d="M247.4,531.1H102.1c-3.3-0.2-5.9-3-5.7-6.4c0.2-3.1,2.6-5.6,5.7-5.7h145.3c3.3,0.2,5.9,3,5.7,6.4
	C253,528.5,250.5,530.9,247.4,531.1z"/>
<path class="st0" d="M271.5,446.4H102.1c-3.3,0-6-2.7-6-6l0,0V283c0-3.3,2.7-6,6-6l0,0h169.4c3.3,0,6,2.7,6,6v157.3
	C277.5,443.7,274.8,446.4,271.5,446.4L271.5,446.4z M108.1,434.3h157.3V289.1H108.1V434.3z"/>
<path class="st0" d="M392.5,289.1c-16.7,0-30.2-13.5-30.2-30.2s13.5-30.2,30.2-30.2s30.2,13.5,30.2,30.2
	C422.7,275.5,409.2,289.1,392.5,289.1L392.5,289.1z M392.5,240.7c-10,0-18.2,8.1-18.2,18.2c0,10,8.1,18.2,18.2,18.2
	s18.2-8.1,18.2-18.2C410.6,248.8,402.5,240.7,392.5,240.7z"/>
<path class="st0" d="M398.5,494.8c-13.4,0-24.2-10.8-24.2-24.2s10.8-24.2,24.2-24.2s24.2,10.8,24.2,24.2S411.9,494.8,398.5,494.8z
	 M398.5,458.5c-6.7,0-12.1,5.4-12.1,12.1s5.4,12.1,12.1,12.1s12.1-5.4,12.1-12.1l0,0C410.6,463.9,405.2,458.5,398.5,458.5
	L398.5,458.5z"/>
<path class="st0" d="M489.3,410.1c-30.1,0-54.5-24.4-54.5-54.5s24.4-54.5,54.5-54.5c30.1,0,54.4,24.3,54.5,54.4
	C543.8,385.6,519.4,410,489.3,410.1z M489.3,313.3c-23.4,0-42.4,19-42.4,42.4s19,42.4,42.4,42.4c23.4,0,42.4-19,42.4-42.4v-0.1
	C531.6,332.2,512.7,313.3,489.3,313.3L489.3,313.3z"/>
</svg>
