<?xml version="1.0" encoding="utf-8"?>
<!-- Generator: Adobe Illustrator 26.0.3, SVG Export Plug-In . SVG Version: 6.00 Build 0)  -->
<svg version="1.1" id="Layer_1" xmlns="http://www.w3.org/2000/svg" xmlns:xlink="http://www.w3.org/1999/xlink" x="0px" y="0px"
	 viewBox="0 0 605.8 605.8" style="enable-background:new 0 0 605.8 605.8;" xml:space="preserve">
<style type="text/css">
	.st0{fill:#4E9911;}
</style>
<path class="st0" d="M574,494.8H283.6c-3.3,0-6.1-2.7-6.1-6.1V379.8c0-3.3,2.7-6,6.1-6H574c3.3,0,6,2.7,6,6v108.9
	C580.1,492.1,577.4,494.8,574,494.8z M289.7,482.7h278.4v-96.8H289.7V482.7z"/>
<path class="st0" d="M283.6,470.6H65.8c-3.3,0-6-2.7-6-6.1V404c0-3.3,2.7-6,6-6h217.8c3.3,0,6,2.7,6,6v60.5
	C289.7,467.9,286.9,470.6,283.6,470.6z M71.8,458.5h205.8v-48.4H71.8V458.5z"/>
<path class="st0" d="M247.4,410.1H65.8c-3.3,0-6-2.7-6-6.1v-84.7c0-3.3,2.7-6,6-6h181.6c3.3,0,6,2.7,6,6V404
	C253.4,407.4,250.7,410.1,247.4,410.1L247.4,410.1z M71.9,398h169.4v-72.7H71.8L71.9,398z"/>
<path class="st0" d="M211,410.1c-3.3,0-6.1-2.7-6.1-6.1v-84.7c0.2-3.3,3-5.9,6.4-5.7c3.1,0.2,5.6,2.6,5.7,5.7V404
	C217,407.4,214.4,410.1,211,410.1L211,410.1z"/>
<path class="st0" d="M174.7,410.1c-3.3,0-6-2.7-6-6l0,0v-84.7c0-3.3,2.7-6,6-6s6,2.7,6,6V404C180.7,407.4,178,410.1,174.7,410.1
	L174.7,410.1z"/>
<path class="st0" d="M138.4,410.1c-3.3,0-6-2.7-6-6.1v-84.7c0.2-3.3,3-5.9,6.4-5.7c3.1,0.2,5.6,2.6,5.7,5.7V404
	C144.4,407.4,141.7,410.1,138.4,410.1L138.4,410.1z"/>
<path class="st0" d="M102.1,410.1c-3.3,0-6-2.7-6-6l0,0v-84.7c0-3.3,2.7-6,6-6s6,2.7,6,6V404C108.1,407.4,105.4,410.1,102.1,410.1
	L102.1,410.1z"/>
<path class="st0" d="M259.4,289.1H97.8c-27.7,0-50.2-22.5-50.2-50.2v-28.4c0-3.3,2.7-6,6-6l0,0h161.6c27.7,0,50.2,22.5,50.2,50.2
	V283C265.4,286.4,262.7,289.1,259.4,289.1z M59.7,216.5v22.4c0,21.1,17.1,38.2,38.2,38.2h155.5v-22.4c0-21.1-17.1-38.2-38.2-38.2
	L59.7,216.5z"/>
<path class="st0" d="M271.5,168.1c-16.7,0-30.2-13.5-30.2-30.2s13.5-30.2,30.2-30.2s30.2,13.5,30.2,30.2S288.2,168.1,271.5,168.1
	L271.5,168.1z M271.5,119.6c-10,0-18.2,8.1-18.2,18.2s8.1,18.2,18.2,18.2c10,0,18.2-8.1,18.2-18.2
	C289.6,127.8,281.5,119.7,271.5,119.6L271.5,119.6z"/>
<path class="st0" d="M404.6,252.8c-30.1,0-54.5-24.4-54.5-54.5s24.4-54.5,54.5-54.5s54.5,24.4,54.5,54.5l0,0
	C459,228.4,434.7,252.7,404.6,252.8z M404.6,156c-23.4,0-42.4,19-42.4,42.4s19,42.4,42.4,42.4s42.4-19,42.4-42.4
	C447,174.9,428,156,404.6,156z"/>
<rect x="513.5" y="307.2" class="st0" width="24.2" height="24.2"/>
<rect x="537.7" y="283" class="st0" width="24.2" height="24.2"/>
<rect x="489.3" y="283" class="st0" width="24.2" height="24.2"/>
<rect x="513.5" y="258.8" class="st0" width="24.2" height="24.2"/>
</svg>
