<?xml version="1.0" encoding="utf-8"?>
<!-- Generator: Adobe Illustrator 26.0.3, SVG Export Plug-In . SVG Version: 6.00 Build 0)  -->
<svg version="1.1" id="Layer_1" xmlns="http://www.w3.org/2000/svg" xmlns:xlink="http://www.w3.org/1999/xlink" x="0px" y="0px"
	 viewBox="0 0 605.8 605.8" style="enable-background:new 0 0 605.8 605.8;" xml:space="preserve">
<style type="text/css">
	.st0{fill:#4E9911;}
</style>
<path class="st0" d="M177.5,339.5c-5.3,0-10.5-1.4-15.2-4c-0.9,1.4-1.8,2.7-2.8,4H177.5z"/>
<path class="st0" d="M77.9,555.3c-30.1,0-54.5-24.4-54.5-54.5c0-19.7,10.6-37.8,27.7-47.5c-4.9-17.1-4.7-35.3,0.6-52.3
	c-10.3-8-16.3-20.4-16.3-33.4c0-7.8,2.2-15.5,6.3-22.1c-27.9-33.3-23.5-82.9,9.8-110.8c9.4-7.9,20.5-13.4,32.5-16.3
	c2.2-30,28.4-52.5,58.4-50.3s52.5,28.4,50.3,58.4c-1.1,14.3-7.7,27.6-18.5,37c1.8,4.1,3.3,8.4,4.3,12.7c0.8,3.3-1.3,6.6-4.5,7.4
	c-0.1,0-0.3,0.1-0.4,0.1c-13.6,2.2-22.9,15-20.7,28.6c1.2,7.6,5.8,14.2,12.5,17.9c1.5,0.8,2.5,2.2,2.9,3.9c0.4,1.6,0.1,3.4-0.9,4.8
	c-1,1.5-2.1,2.9-3.1,4.3c-1.1,1.5-2.9,2.4-4.8,2.4h-26.4c-13.8,0-25,11.2-25,25s11.2,25,25,25h35.5c3.3,0.2,5.9,3,5.7,6.4
	c-0.2,3.1-2.6,5.6-5.7,5.7c-13.8-0.3-25.3,10.6-25.6,24.4s10.6,25.3,24.4,25.6c0.4,0,0.8,0,1.3,0H213c3.3,0.2,5.9,3,5.7,6.4
	c-0.2,3.1-2.6,5.6-5.7,5.7c-13.8,0-25,11.2-25,25c0,1.6,0.1,3.1,0.4,4.6c0.5,2.5-0.6,5-2.8,6.3c-16.9,10.3-36.6,14.8-56.3,12.8
	C121.9,540.6,101.1,555.4,77.9,555.3z M138.4,180.2c-23.4,0-42.3,19-42.4,42.3c0,0.1,0,0.3,0,0.4v0.5c0.1,3-2.1,5.6-5,6.1
	c-36.2,6.1-60.7,40.4-54.6,76.6c2.2,13.1,8.3,25.2,17.4,34.8c2.1,2.2,2.2,5.6,0.4,8C43.8,362,45.9,381,59,391.4
	c1,0.8,2.1,1.5,3.1,2.2c2.5,1.5,3.5,4.6,2.5,7.3c-6.4,17.3-6.6,36.2-0.4,53.6c1.1,3-0.4,6.3-3.3,7.6c-21.4,9.3-31.2,34.3-21.9,55.7
	c9.3,21.4,34.3,31.2,55.7,21.9c12.2-5.3,21.3-16.2,24.3-29.2c0.7-3.1,3.7-5.1,6.8-4.6c17.2,2.8,34.8-0.3,50.1-8.6
	c0-0.8-0.1-1.7-0.1-2.5c0-9.3,3.5-18.2,9.7-25h-17c-20.5,0-37.1-16.6-37.1-37.1c0-9.3,3.5-18.2,9.7-25H133
	c-20.5,0-37.1-16.6-37.1-37.1s16.6-37.1,37.1-37.1h17c-13.8-15.1-12.8-38.6,2.4-52.4c3.6-3.3,7.9-5.9,12.5-7.5c-1-3-2.3-6-3.8-8.9
	c-1.4-2.7-0.6-6,1.8-7.7c19-13.6,23.4-40.1,9.7-59.1C164.8,186.7,152,180.2,138.4,180.2L138.4,180.2z"/>
<path class="st0" d="M279.6,469.8H213c-3.3,0.2-6.2-2.4-6.4-5.7c-0.2-3.3,2.4-6.2,5.7-6.4c0.2,0,0.4,0,0.6,0h66.5
	c3.3-0.2,6.2,2.4,6.4,5.7c0.2,3.3-2.4,6.2-5.7,6.4C280,469.8,279.8,469.8,279.6,469.8L279.6,469.8z"/>
<path class="st0" d="M279.6,407.7h-111c-3.3,0.2-6.2-2.4-6.4-5.7c-0.2-3.3,2.4-6.2,5.7-6.4c0.2,0,0.4,0,0.6,0h110.9
	c3.3-0.2,6.2,2.4,6.4,5.7c0.2,3.3-2.4,6.2-5.7,6.4C280,407.7,279.8,407.7,279.6,407.7L279.6,407.7z"/>
<path class="st0" d="M279.6,345.6h-102c-3.3,0.2-6.2-2.4-6.4-5.7c-0.2-3.3,2.4-6.2,5.7-6.4c0.2,0,0.4,0,0.6,0h102
	c3.3-0.2,6.2,2.4,6.4,5.7c0.2,3.3-2.4,6.2-5.7,6.4C280,345.6,279.8,345.6,279.6,345.6L279.6,345.6z"/>
<path class="st0" d="M429.3,531.9H213c-20.5,0-37.1-16.6-37.1-37.1c0-9.3,3.5-18.2,9.7-25h-17c-20.5,0-37.1-16.6-37.1-37.1
	c0-9.3,3.5-18.2,9.7-25h-8.1c-20.5,0.4-37.5-15.8-37.9-36.3s15.8-37.5,36.3-37.9c0.5,0,1,0,1.5,0h17c-13.8-15.1-12.8-38.6,2.4-52.4
	c6.8-6.3,15.8-9.7,25-9.7h112.7l-22.8-15.8c-0.3-0.2-0.6-0.4-0.8-0.7c-14.5-14.5-14.6-38-0.2-52.5c14.3-14.4,37.4-14.6,52-0.6
	l128.3,71.9c22,5.7,42.8,21.3,53.2,39.7H586c3.3,0,6.1,2.7,6.1,6v181.5c0,3.3-2.7,6-6.1,6h-98.3
	C472.5,522.4,450.3,531.9,429.3,531.9z M219.1,463.7c0,3.3-2.7,6-6,6c-13.8,0-25,11.2-25,25s11.2,25,25,25h216.2
	c18.6,0,38.4-8.8,51.6-23.1c1.1-1.2,2.8-1.9,4.4-1.9h94.8V325.3h-83.8c-2.3,0-4.4-1.3-5.4-3.4c-8.2-17-27.5-31.8-47.7-36.8
	c-0.5-0.1-1-0.3-1.5-0.6L312,211.9c-0.5-0.3-0.9-0.6-1.3-1c-9.7-9.8-25.5-9.9-35.4-0.2c-9.8,9.6-9.9,25.4-0.4,35.2l38.2,26.5
	c2.7,1.9,3.4,5.7,1.5,8.4c-1.1,1.6-3,2.6-4.9,2.6h-132c-13.8,0-25,11.2-25,25s11.2,25,25,25c3.3,0.2,5.9,3,5.7,6.4
	c-0.2,3.1-2.6,5.6-5.7,5.7h-44.4c-13.8-0.3-25.3,10.6-25.6,24.4c-0.3,13.8,10.6,25.3,24.4,25.6c0.4,0,0.8,0,1.3,0h35.5
	c3.3,0.2,5.9,3,5.7,6.4c-0.2,3.1-2.6,5.6-5.7,5.7c-13.8,0-25,11.2-25,25s11.2,25,25,25H213C216.4,457.6,219.1,460.4,219.1,463.7
	L219.1,463.7z"/>
<path class="st0" d="M235.2,180.2c-16.7,0-30.2-13.5-30.2-30.2s13.5-30.2,30.2-30.2s30.2,13.5,30.2,30.2S251.9,180.2,235.2,180.2
	L235.2,180.2z M235.2,131.7c-10,0-18.2,8.1-18.2,18.2c0,10,8.1,18.2,18.2,18.2c10,0,18.2-8.1,18.2-18.2l0,0
	C253.3,139.9,245.2,131.8,235.2,131.7L235.2,131.7z"/>
<path class="st0" d="M77.9,156c-23.4,0-42.4-19-42.4-42.4s19-42.4,42.4-42.4s42.4,19,42.4,42.4l0,0C120.2,137,101.2,155.9,77.9,156z
	 M77.9,83.4c-16.7,0-30.2,13.5-30.2,30.2s13.5,30.2,30.2,30.2s30.2-13.5,30.2-30.2l0,0C108.1,96.9,94.6,83.4,77.9,83.4z"/>
</svg>
