<?xml version="1.0" encoding="utf-8"?>
<!-- Generator: Adobe Illustrator 26.0.3, SVG Export Plug-In . SVG Version: 6.00 Build 0)  -->
<svg version="1.1" id="Layer_1" xmlns="http://www.w3.org/2000/svg" xmlns:xlink="http://www.w3.org/1999/xlink" x="0px" y="0px"
	 viewBox="0 0 605.8 605.8" style="enable-background:new 0 0 605.8 605.8;" xml:space="preserve">
<style type="text/css">
	.st0{fill:#4E9911;}
</style>
<path class="st0" d="M436.9,277H190.8c-12.2-0.1-22.1-10-22.2-22.2v-113c0-12.2,9.9-22.1,22.2-22.2h246.1c12.2,0,22.2,10,22.2,22.2
	v113C459,267,449.1,276.9,436.9,277z M190.8,131.7c-5.6,0-10.1,4.5-10.1,10.1v113c0,5.6,4.5,10.1,10.1,10.1h246.1
	c5.6,0,10.1-4.5,10.1-10.1v-113c0-5.6-4.5-10.1-10.1-10.1L190.8,131.7L190.8,131.7z"/>
<path class="st0" d="M436.9,579.5H190.8c-12.2-0.1-22.1-9.9-22.2-22.2v-113c0-12.2,9.9-22.1,22.2-22.2h246.1
	c12.2,0,22.2,10,22.2,22.2v113C459,569.6,449.1,579.5,436.9,579.5z M190.8,434.3c-5.6,0-10.1,4.5-10.1,10.1v113
	c0,5.6,4.5,10.1,10.1,10.1h246.1c5.6,0,10.1-4.5,10.1-10.1l0,0v-113c0-5.6-4.5-10.1-10.1-10.1L190.8,434.3L190.8,434.3z"/>
<path class="st0" d="M428.8,434.3H198.9c-3.3,0-6.1-2.7-6.1-6V270.9c0-3.3,2.7-6.1,6.1-6.1h229.9c3.3,0,6,2.7,6,6.1v157.3
	C434.9,431.6,432.2,434.3,428.8,434.3z M204.9,422.2h217.8V277H204.9V422.2z"/>
<path class="st0" d="M368.3,131.7H259.4c-3.3,0-6-2.7-6-6l0,0V78.5c0-17.4,14.1-31.4,31.5-31.5h58c17.4,0,31.5,14.1,31.5,31.5v47.2
	C374.3,129,371.6,131.7,368.3,131.7z M265.4,119.6h96.8V78.5c0-10.7-8.7-19.4-19.4-19.4l0,0h-58c-10.7,0-19.3,8.7-19.4,19.4
	L265.4,119.6L265.4,119.6z"/>
<path class="st0" d="M453,531.1H271.5c-3.3,0.2-6.2-2.4-6.4-5.7c-0.2-3.3,2.4-6.2,5.7-6.4c0.2,0,0.4,0,0.6,0H453
	c3.3-0.2,6.2,2.4,6.4,5.7c0.2,3.3-2.4,6.2-5.7,6.4C453.4,531.1,453.2,531.1,453,531.1z"/>
<path class="st0" d="M380.4,385.9h-133c-3.3,0-6-2.7-6-6l0,0v-60.5c0-3.3,2.7-6,6-6h133.1c3.3,0,6.1,2.7,6.1,6v60.5
	C386.5,383.2,383.8,385.9,380.4,385.9C380.5,385.9,380.4,385.9,380.4,385.9z M253.4,373.8h121v-48.5h-121V373.8L253.4,373.8z"/>
<path class="st0" d="M90,410.1c-16.7,0-30.2-13.5-30.2-30.2s13.5-30.2,30.2-30.2s30.2,13.5,30.2,30.2l0,0
	C120.2,396.6,106.7,410.1,90,410.1z M90,361.7c-10,0-18.2,8.1-18.2,18.2c0,10,8.1,18.2,18.2,18.2c10,0,18.2-8.1,18.2-18.2
	C108.1,369.8,100,361.7,90,361.7L90,361.7z"/>
<path class="st0" d="M531.7,264.9c-20.1,0-36.3-16.2-36.3-36.3s16.2-36.3,36.3-36.3s36.3,16.2,36.3,36.3l0,0
	C568,248.6,551.7,264.9,531.7,264.9z M531.7,204.4c-13.4,0-24.2,10.8-24.2,24.2s10.8,24.2,24.2,24.2s24.2-10.8,24.2-24.2l0,0
	C555.9,215.3,545.1,204.4,531.7,204.4z"/>
<path class="st0" d="M380.4,180.2H174.7c-3.3,0-6-2.7-6-6s2.7-6,6-6h205.7c3.3,0,6,2.7,6,6C386.5,177.5,383.8,180.2,380.4,180.2z"/>
</svg>
