<?xml version="1.0" encoding="utf-8"?>
<!-- Generator: Adobe Illustrator 26.0.3, SVG Export Plug-In . SVG Version: 6.00 Build 0)  -->
<svg version="1.1" id="Layer_1" xmlns="http://www.w3.org/2000/svg" xmlns:xlink="http://www.w3.org/1999/xlink" x="0px" y="0px"
	 viewBox="0 0 605.8 605.8" style="enable-background:new 0 0 605.8 605.8;" xml:space="preserve">
<style type="text/css">
	.st0{fill:#4E9911;}
</style>
<path class="st0" d="M366.7,364.9c-3.3,0-6-2.7-6-6v-50.4c0.2-3.3,3-5.9,6.4-5.7c3.1,0.2,5.6,2.6,5.7,5.7v50.4
	C372.8,362.1,370.1,364.8,366.7,364.9L366.7,364.9z"/>
<path class="st0" d="M319.7,331.2c-3.3,0-6-2.7-6-6v-50.4c0.2-3.3,3-5.9,6.4-5.7c3.1,0.2,5.6,2.6,5.7,5.7v50.4
	C325.7,328.5,323,331.2,319.7,331.2z"/>
<path class="st0" d="M272.6,338c-3.3,0-6-2.7-6.1-6l0,0v-50.4c0-3.3,2.7-6,6-6s6,2.7,6,6V332C278.7,335.2,276,337.9,272.6,338
	L272.6,338z"/>
<path class="st0" d="M413.8,471.8c-1.4,0-2.8-0.5-3.9-1.4c-1.4-1.1-2.1-2.8-2.1-4.6V308.4c0-9.7-7.8-17.5-17.5-17.5
	s-17.5,7.8-17.5,17.5c0.2,3.3-2.4,6.2-5.7,6.4c-3.3,0.2-6.2-2.4-6.4-5.7c0-0.2,0-0.4,0-0.6v-33.6c0-9.7-7.8-17.5-17.5-17.5
	s-17.5,7.8-17.5,17.5c0.2,3.3-2.4,6.2-5.7,6.4c-3.3,0.2-6.2-2.4-6.4-5.7c0-0.2,0-0.4,0-0.6v-26.9c0-9.7-7.8-17.5-17.5-17.5
	s-17.5,7.8-17.5,17.5v33.6c0,3.3-2.7,6-6,6s-6-2.7-6-6c0-9.7-7.8-17.5-17.5-17.5c-9.7,0-17.5,7.8-17.5,17.5v100c0,3.3-2.7,6.1-6,6.1
	c-2,0-3.8-1-5-2.6l-20-28.8c-7.3-6.4-18.3-5.7-24.7,1.6c-5.9,6.8-5.8,16.9,0.3,23.5c0.4,0.4,0.7,0.8,1,1.3l30.9,55.2
	c1.6,2.9,0.6,6.6-2.4,8.2c-0.7,0.4-1.6,0.7-2.4,0.7c-21.7,2-44.7,5-68.6,8.7c-23.1,3.6-44.9-11.7-49.3-34.7
	C80,393,73.1,352,70.9,315.4c-2.8-45.3,2.1-72.6,14.9-83.5c16.5-13.9,11.4-43.8,3-93.3l-1-6c-3.2-19,2.1-38.4,14.5-53.1
	c12.3-14.5,30.3-23,49.3-23c0.9,0,1.9,0,2.9,0c5.3,0.2,10.5,0.4,15.4,0.4c38.3,0,65.4-6.9,78.2-20.1C258.4,26.1,281.6,21,319,21
	c49.3,0,112.7,8.9,157.1,16.5c27.8,4.6,49.5,26.7,53.6,54.7l0.2,1.6c6.4,43.1,11.4,77.1-8.5,122.6c-21.2,48.6-6.6,131.5,4,176.7
	c4.7,19.9-5.1,40.4-23.5,49.2c-22.5,10.6-55.9,24.3-87.1,29.5C414.5,471.8,414.1,471.8,413.8,471.8z M390.3,278.8
	c16.3,0,29.6,13.2,29.6,29.6v150.1c27.8-5.7,56.7-17.7,76.9-27.2c13.3-6.3,20.4-21.1,17.1-35.4c-10.9-46.7-25.9-132.6-3.3-184.3
	c18.6-42.4,14-73.2,7.7-116l-0.2-1.6c-3.3-22.7-20.9-40.8-43.6-44.5c-44-7.4-106.6-16.3-155.1-16.3c-41.7,0-56.9,6.6-62.3,12.1
	C241.5,61,212.2,68.9,170,68.9c-5.1,0-10.5-0.1-15.9-0.4h-2.3c-15.5,0-30.1,6.8-40.1,18.7c-10.1,12-14.5,27.8-11.9,43.3l1,6
	c9.1,53.8,14.6,86.2-7.1,104.6c-16.4,13.9-15.1,80.2,3.7,177.4c2.8,14.7,15.7,25.4,30.7,25.5c1.6,0,3.3-0.1,4.9-0.4
	c20.8-3.2,41-5.9,60.2-8l-26-46.4c-11.2-11.9-10.7-30.6,1.2-41.8c11.6-11,29.9-10.7,41.3,0.6c0.3,0.3,0.5,0.5,0.7,0.8l9.3,13.4
	v-80.7c0-16.3,13.2-29.6,29.6-29.6c6.3,0,12.4,2,17.5,5.7v-9.8c0.4-16.3,13.9-29.3,30.3-28.9c15.8,0.4,28.5,13.1,28.9,28.9v3
	c13.2-9.7,31.7-6.8,41.3,6.4c3.7,5.1,5.7,11.2,5.7,17.5v9.8C377.9,280.8,384,278.8,390.3,278.8z"/>
<path class="st0" d="M220.5,168.1c-10.4,0-20.8-1.4-30.8-4.3c-3.2-1-4.9-4.4-3.9-7.6c1-3.2,4.4-4.9,7.6-3.9l0,0
	c0.4,0.1,37.4,11.4,66.1-6.5c31.8-19.9,62.1-0.8,63.4,0c2.7,1.9,3.4,5.7,1.4,8.5c-1.8,2.5-5.3,3.3-8,1.7c-1-0.6-25.2-15.7-50.4,0
	C250.9,165.5,234.4,168.1,220.5,168.1z"/>
<path class="st0" d="M312.6,107.6c-10.4,0-20.8-1.4-30.8-4.3c-3.2-1-5-4.4-3.9-7.6c1-3.2,4.4-5,7.6-3.9l0,0
	c0.4,0.1,37.4,11.4,66.1-6.5c31.8-19.9,62.2-0.8,63.4,0c2.8,1.8,3.6,5.6,1.8,8.4c-1.8,2.8-5.6,3.6-8.4,1.8c-1-0.6-25.2-15.7-50.4,0
	C342.9,104.9,326.4,107.6,312.6,107.6z"/>
<path class="st0" d="M380.4,591.6h-121c-3.3,0-6-2.7-6-6v-57.8c-14.8-7.8-27.4-24-32-41.7l-54.3-96.9c-11.4-11.7-11.1-30.4,0.6-41.8
	c11.7-11.4,30.4-11.1,41.8,0.6c0.3,0.3,0.5,0.5,0.7,0.8l9.3,13.4v-80.7c0-16.3,13.2-29.6,29.6-29.6c6.3,0,12.4,2,17.5,5.7v-9.8
	c0.4-16.3,13.9-29.3,30.3-28.9c15.8,0.4,28.5,13.1,28.9,28.9v3c13.2-9.7,31.7-6.8,41.3,6.4c3.7,5.1,5.7,11.2,5.7,17.5v9.8
	c13.2-9.7,31.7-6.8,41.3,6.4c3.7,5.1,5.7,11.2,5.7,17.5v163.9c0,22.6-14.1,45.8-33.4,55.7v57.7C386.4,589,383.7,591.6,380.4,591.6z
	 M265.4,579.5h108.9V524c0-2.5,1.5-4.7,3.8-5.6c16.9-6.9,29.6-26.7,29.6-46.1V308.4c0-9.7-7.8-17.5-17.5-17.5s-17.5,7.8-17.5,17.5
	c0.2,3.3-2.4,6.2-5.7,6.4c-3.3,0.2-6.2-2.4-6.4-5.7c0-0.2,0-0.4,0-0.6v-33.6c0-9.7-7.8-17.5-17.5-17.5s-17.5,7.8-17.5,17.5
	c0.2,3.3-2.4,6.2-5.7,6.4c-3.3,0.2-6.2-2.4-6.4-5.7c0-0.2,0-0.4,0-0.6v-26.9c0-9.7-7.8-17.5-17.5-17.5s-17.5,7.8-17.5,17.5v33.6
	c0,3.3-2.7,6-6,6s-6-2.7-6-6c0-9.7-7.8-17.5-17.5-17.5s-17.5,7.8-17.5,17.5v100c0,3.3-2.7,6.1-6.1,6.1c-2,0-3.8-1-5-2.6l-20-28.8
	c-6.9-6.5-17.7-6.3-24.4,0.4c-6.8,6.8-6.8,17.9,0,24.7c0.4,0.4,0.7,0.8,1,1.3l55,98.3c0.3,0.5,0.5,1,0.6,1.5
	c3.9,15.7,15.8,30.5,28.9,36c2.3,0.9,3.7,3.1,3.7,5.6v55.6h0.2V579.5z"/>
</svg>
