<?xml version="1.0" encoding="utf-8"?>
<!-- Generator: Adobe Illustrator 26.0.3, SVG Export Plug-In . SVG Version: 6.00 Build 0)  -->
<svg version="1.1" id="Layer_1" xmlns="http://www.w3.org/2000/svg" xmlns:xlink="http://www.w3.org/1999/xlink" x="0px" y="0px"
	 viewBox="0 0 605.8 605.8" style="enable-background:new 0 0 605.8 605.8;" xml:space="preserve">
<style type="text/css">
	.st0{fill:#4E9911;}
</style>
<g>
	<path class="st0" d="M525.6,156H90c-3.3,0-6-2.7-6-6.1v-121c0-3.3,2.7-6,6-6l0,0h435.7c3.3,0,6,2.7,6,6l0,0v121
		C531.7,153.2,529,156,525.6,156z M96.1,143.9h423.5v-109H96L96.1,143.9z"/>
	<path class="st0" d="M525.6,83.4H155.3c-3.3-0.2-5.9-3-5.7-6.4c0.2-3.1,2.6-5.6,5.7-5.7h370.3c3.3,0.2,5.9,3,5.7,6.4
		C531.2,80.7,528.7,83.2,525.6,83.4z"/>
	<path class="st0" d="M344.1,252.8h-72.6c-3.3,0-6-2.7-6-6.1v-96.8c0-3.3,2.7-6,6-6h72.6c3.3,0,6.1,2.7,6.1,6v96.8
		C350.2,250.1,347.5,252.8,344.1,252.8z M277.6,240.7h60.5V156h-60.5V240.7L277.6,240.7z"/>
	<path class="st0" d="M356.2,579.5h-96.8c-3.3,0-6-2.7-6-6V246.7c0-3.3,2.7-6,6-6l0,0h96.8c3.3,0,6,2.7,6,6l0,0v326.8
		C362.2,576.8,359.5,579.5,356.2,579.5z M265.5,567.4h84.7V252.8h-84.7V567.4L265.5,567.4z"/>
	<path class="st0" d="M307.8,422.2h-48.4c-3.3-0.2-5.9-3-5.7-6.4c0.2-3.1,2.6-5.6,5.7-5.7h48.4c3.3,0.2,5.9,3,5.7,6.4
		C313.4,419.6,310.9,422,307.8,422.2z"/>
	<path class="st0" d="M307.8,458.5h-48.4c-3.3,0-6.1-2.7-6.1-6.1c0-3.3,2.7-6.1,6.1-6.1h48.4c3.3,0,6.1,2.7,6.1,6.1
		S311.2,458.5,307.8,458.5z"/>
	<path class="st0" d="M307.8,494.8h-48.4c-3.3-0.2-5.9-3-5.7-6.4c0.2-3.1,2.6-5.6,5.7-5.7h48.4c3.3,0.2,5.9,3,5.7,6.4
		C313.4,492.2,310.9,494.6,307.8,494.8z"/>
	<rect x="489.3" y="283" class="st0" width="24.2" height="24.2"/>
	<rect x="513.5" y="258.8" class="st0" width="24.2" height="24.2"/>
	<rect x="465.1" y="258.8" class="st0" width="24.2" height="24.2"/>
	<rect x="489.3" y="234.6" class="st0" width="24.2" height="24.2"/>
	<rect x="90" y="476.7" class="st0" width="24.2" height="24.2"/>
	<rect x="114.2" y="452.4" class="st0" width="24.2" height="24.2"/>
	<rect x="65.8" y="452.4" class="st0" width="24.2" height="24.2"/>
	<rect x="90" y="428.3" class="st0" width="24.2" height="24.2"/>
</g>
</svg>
