<?xml version="1.0" encoding="utf-8"?>
<!-- Generator: Adobe Illustrator 26.0.3, SVG Export Plug-In . SVG Version: 6.00 Build 0)  -->
<svg version="1.1" id="Layer_1" xmlns="http://www.w3.org/2000/svg" xmlns:xlink="http://www.w3.org/1999/xlink" x="0px" y="0px"
	 viewBox="0 0 605.8 605.8" style="enable-background:new 0 0 605.8 605.8;" xml:space="preserve">
<style type="text/css">
	.st0{fill:#4E9911;}
</style>
<path class="st0" d="M332,361.7c-30.5,0-54.4-39.9-54.4-90.8s23.9-90.8,54.5-90.8s54.5,39.9,54.5,90.8S362.5,361.7,332,361.7z
	 M332,192.3c-23,0-42.4,36-42.4,78.7s19.4,78.7,42.4,78.7s42.4-36,42.4-78.7S355,192.3,332,192.3z"/>
<path class="st0" d="M364.7,579.5h-65.4c-12,0-21.7-9.8-21.7-21.8v-56.9c0-3.3,2.7-6.1,6-6.1l0,0h96.8c3.3,0,6.1,2.7,6.1,6.1v56.9
	C386.5,569.8,376.7,579.5,364.7,579.5L364.7,579.5z M289.7,506.9v50.8c0,5.3,4.3,9.7,9.7,9.7h65.4c5.3,0,9.7-4.3,9.7-9.7v-50.8
	L289.7,506.9L289.7,506.9z"/>
<path class="st0" d="M376.2,506.9h-88.5c-26.1,0-48.1-19.7-50.8-45.6l-44-407.6c-0.4-3.3,2-6.3,5.4-6.7c0.2,0,0.4,0,0.7,0h266.2
	c1.7,0,3.4,0.7,4.5,2c1.2,1.3,1.7,3,1.6,4.7l-44.1,407.5C424.4,487.3,402.4,507,376.2,506.9z M205.6,59.1l43.4,401
	c2.1,19.8,18.9,34.9,38.8,34.8h88.5c19.9,0,36.7-15,38.8-34.8l43.3-400.8L205.6,59.1z"/>
<path class="st0" d="M453,131.7H211c-3.3-0.2-5.9-3-5.7-6.4c0.2-3.1,2.6-5.6,5.7-5.7h242c3.3-0.2,6.2,2.4,6.4,5.7
	c0.2,3.3-2.4,6.2-5.7,6.4C453.4,131.8,453.2,131.8,453,131.7z"/>
<path class="st0" d="M513.5,470.6c-16.7,0-30.2-13.5-30.2-30.2s13.5-30.2,30.2-30.2s30.2,13.5,30.2,30.2S530.2,470.6,513.5,470.6
	L513.5,470.6z M513.5,422.2c-10,0-18.1,8.1-18.1,18.2c0,10,8.1,18.1,18.2,18.1c10,0,18.1-8.1,18.1-18.2
	C531.7,430.3,523.6,422.2,513.5,422.2z"/>
<path class="st0" d="M156.5,252.8c-13.4,0-24.2-10.8-24.2-24.2s10.8-24.2,24.2-24.2s24.2,10.8,24.2,24.2l0,0
	C180.7,241.9,169.9,252.8,156.5,252.8z M156.5,216.5c-6.7,0-12.1,5.4-12.1,12.1c0,6.7,5.4,12.1,12.1,12.1c6.7,0,12.1-5.4,12.1-12.1
	l0,0C168.6,221.9,163.2,216.5,156.5,216.5z"/>
<path class="st0" d="M138.4,555.3c-23.4,0-42.4-19-42.4-42.4c0-23.4,19-42.4,42.4-42.4s42.4,19,42.4,42.4l0,0
	C180.7,536.3,161.8,555.3,138.4,555.3z M138.4,482.7c-16.7,0-30.2,13.5-30.2,30.2s13.5,30.2,30.2,30.2s30.2-13.5,30.2-30.2l0,0
	C168.6,496.2,155.1,482.7,138.4,482.7L138.4,482.7z"/>
<path class="st0" d="M416.7,434.3h-121c-3.3-0.2-5.9-3-5.7-6.4c0.2-3.1,2.6-5.6,5.7-5.7h121c3.3,0.2,5.9,3,5.7,6.4
	C422.3,431.7,419.8,434.1,416.7,434.3z"/>
<path class="st0" d="M332,289.1c-3.3,0-6-2.7-6-6v-24.2c0-3.3,2.7-6,6-6s6,2.7,6,6V283C338.1,286.4,335.4,289.1,332,289.1L332,289.1
	z"/>
<path class="st0" d="M344.1,277h-24.2c-3.3-0.2-5.9-3-5.7-6.4c0.2-3.1,2.6-5.6,5.7-5.7h24.2c3.3,0.2,5.9,3,5.7,6.4
	C349.7,274.3,347.2,276.8,344.1,277z"/>
</svg>
