<?xml version="1.0" encoding="utf-8"?>
<!-- Generator: Adobe Illustrator 26.0.3, SVG Export Plug-In . SVG Version: 6.00 Build 0)  -->
<svg version="1.1" id="Layer_1" xmlns="http://www.w3.org/2000/svg" xmlns:xlink="http://www.w3.org/1999/xlink" x="0px" y="0px"
	 viewBox="0 0 605.8 605.8" style="enable-background:new 0 0 605.8 605.8;" xml:space="preserve">
<style type="text/css">
	.st0{fill:#4E9911;}
</style>
<path class="st0" d="M465.8,556.7c-9.9,0-19.8-2.1-28.9-6.1c-34.7-15.3-83.9-24.1-135.2-24.1s-100.5,8.8-135.2,24.1
	c-31.9,14.1-69.4,3-88.5-26.2c-12.1-19.1-18.5-41.3-18.3-63.9v-73.3c0-3.3,2.7-6,6-6c3.3,0,6,2.7,6,6c-0.2,20.3,5.6,40.2,16.4,57.3
	c15.9,24.2,47,33.4,73.5,21.7c36.6-16.2,86.4-25.1,140-25.1s103.4,8.9,140,25.1c26.5,11.7,57.6,2.6,73.5-21.7
	c10.9-17.1,16.6-37,16.4-57.3c0.2-3.3,3-5.9,6.4-5.7c3.1,0.2,5.6,2.6,5.7,5.7v73.3c0.2,22.6-6.2,44.8-18.3,63.9
	C512.3,544.6,489.8,556.8,465.8,556.7z M301.8,514.4c53.6,0,103.4,8.9,140,25.1c7.6,3.3,15.7,5.1,24,5.1c20,0.1,38.6-10,49.5-26.7
	c10.9-17.1,16.5-37,16.4-57.3v-20.4c-1.9,3.8-4,7.5-6.2,11c-13.1,20.2-35.6,32.4-59.6,32.2c-10,0-19.8-2.1-28.9-6.1
	c-34.7-15.3-83.9-24.1-135.2-24.1s-100.5,8.8-135.2,24.1c-31.9,14.1-69.4,3.1-88.5-26.2c-2.3-3.6-4.4-7.2-6.2-11v20.4
	c-0.1,20.3,5.6,40.2,16.5,57.3c10.9,16.8,29.5,26.8,49.5,26.7c8.3,0,16.4-1.7,24-5.1C198.4,523.3,248.1,514.4,301.8,514.4z"/>
<path class="st0" d="M434.9,349.6c-20.1,0-36.3-16.3-36.3-36.3c0-20.1,16.3-36.3,36.3-36.3c20.1,0,36.3,16.3,36.3,36.3l0,0
	C471.2,333.3,454.9,349.6,434.9,349.6z M434.9,289.1c-13.4,0-24.2,10.8-24.2,24.2c0,13.4,10.8,24.2,24.2,24.2
	c13.4,0,24.2-10.8,24.2-24.2C459.1,300,448.3,289.1,434.9,289.1L434.9,289.1L434.9,289.1z"/>
<path class="st0" d="M465.8,483.4L465.8,483.4c-10,0-19.8-2.1-28.9-6.1c-34.7-15.3-83.9-24.1-135.2-24.1s-100.5,8.8-135.2,24.1
	c-31.9,14.1-69.4,3.1-88.5-26.2c-12.1-19.1-18.5-41.3-18.3-63.9v-75.3c-0.2-22.6,6.2-44.8,18.3-63.9c8.3-12.9,20.6-22.7,35.1-27.9
	c3.1-1.1,6.6,0.5,7.7,3.6c0.1,0.2,0.2,0.5,0.2,0.8c4.4,19.6,23.8,31.9,43.3,27.5c9.9-2.2,18.4-8.5,23.5-17.2
	c1.4-2.4,4.3-3.5,6.9-2.8c31.3,9.1,68.3,13.9,107,13.9c51.2,0,100.5-8.8,135.2-24.1c31.9-14.1,69.4-3.1,88.5,26.2
	c12.1,19.1,18.5,41.3,18.3,63.9v75.3c0.2,22.6-6.2,44.8-18.3,63.9C512.4,471.3,489.9,483.5,465.8,483.4z M301.8,441.1
	c53.6,0,103.4,8.9,140,25.1c26.5,11.7,57.6,2.6,73.5-21.7c10.9-17.1,16.6-37,16.4-57.3v-75.3c0.2-20.3-5.5-40.2-16.4-57.3
	c-10.9-16.8-29.5-26.8-49.5-26.7c-8.3,0-16.4,1.7-24,5.1c-36.7,16.2-86.4,25.1-140,25.1c-38,0-74.6-4.6-106-13.2
	c-9.1,12.5-23.7,19.9-39.2,20c-20,0.1-38-12.2-45.1-30.9c-9.5,4.6-17.5,11.8-23.2,20.7c-10.9,17.1-16.6,37-16.4,57.3v75.3
	c-0.2,20.3,5.5,40.2,16.4,57.3c15.9,24.2,47,33.4,73.5,21.7C198.4,450,248.1,441.1,301.8,441.1z"/>
<path class="st0" d="M156.5,264.9c-22.7,0.1-42.3-15.6-47.2-37.7c-5.9-26.1,10.4-52,36.5-58s52,10.4,58,36.5
	c0.8,3.5,1.2,7.2,1.2,10.8C204.9,243.2,183.3,264.9,156.5,264.9z M156.5,180.2c-20,0-36.3,16.3-36.3,36.3c0,2.7,0.3,5.3,0.9,8
	c4.4,19.6,23.8,31.9,43.3,27.5c9.9-2.2,18.4-8.5,23.5-17.2c10.1-17.3,4.3-39.5-13-49.6C169.4,181.8,163,180.1,156.5,180.2
	L156.5,180.2z"/>
<path class="st0" d="M404.6,192.3c-36.8,0-66.6-29.8-66.6-66.6s29.8-66.6,66.6-66.6s66.6,29.8,66.6,66.6l0,0
	C471.1,162.4,441.4,192.2,404.6,192.3z M404.6,71.2c-30.1,0-54.5,24.4-54.5,54.5s24.4,54.5,54.5,54.5s54.5-24.4,54.5-54.5
	C459,95.6,434.7,71.3,404.6,71.2L404.6,71.2z"/>
</svg>
