<?xml version="1.0" encoding="utf-8"?>
<!-- Generator: Adobe Illustrator 26.0.3, SVG Export Plug-In . SVG Version: 6.00 Build 0)  -->
<svg version="1.1" id="Layer_1" xmlns="http://www.w3.org/2000/svg" xmlns:xlink="http://www.w3.org/1999/xlink" x="0px" y="0px"
	 viewBox="0 0 605.8 605.8" style="enable-background:new 0 0 605.8 605.8;" xml:space="preserve">
<style type="text/css">
	.st0{fill:#4E9911;}
</style>
<path class="st0" d="M219.5,528.7c-54.7,0-99.2-48.3-99.2-107.7v-0.2c0.1-11-4.9-21.5-13.7-28.2C28.7,334.9,12.4,225,70.1,147.1
	s167.6-94.2,245.5-36.4c44.6,33.1,70.9,85.4,71,140.9c0.2,3.3-2.4,6.2-5.7,6.4c-3.3,0.2-6.2-2.4-6.4-5.7c0-0.2,0-0.4,0-0.6
	c0-90.2-73-163.4-163.2-163.4c-0.1,0-0.1,0-0.2,0h-1.2C119.6,88.8,47,162.5,47.6,252.7c0.4,51.4,24.9,99.6,66.1,130.1
	c11.8,9,18.7,23.1,18.6,38v0.2c0,52.7,39.1,95.6,87.1,95.6s87.1-43,87.1-95.6c-0.2-3.3,2.4-6.2,5.7-6.4c3.3-0.2,6.2,2.4,6.4,5.7
	c0,0.2,0,0.4,0,0.6C318.7,480.4,274.2,528.7,219.5,528.7z"/>
<path class="st0" d="M227.9,427H194c-3.3,0.2-6.2-2.4-6.4-5.7c-0.2-3.3,2.4-6.2,5.7-6.4c0.2,0,0.4,0,0.6,0h33.9
	c15.4,0,27.8-12.5,27.8-27.8c0-15.4-12.5-27.8-27.8-27.8l0,0H211c-59.5,0-107.7-48.2-107.7-107.7S151.5,143.8,211,143.8
	S318.7,192,318.7,251.5l0,0c0.2,3.3-2.4,6.2-5.7,6.4c-3.3,0.2-6.2-2.4-6.4-5.7c0-0.2,0-0.4,0-0.6c0-52.8-42.8-95.6-95.6-95.6
	c-1.5,0-3,0-4.5,0.1c-49.1,2.6-88.4,41.8-91,91c-2.5,52.8,38.3,97.5,91,100c1.5,0.1,3,0.1,4.4,0.1h16.9c22.1,0,39.9,17.9,39.9,39.9
	S249.9,427,227.9,427L227.9,427L227.9,427z"/>
<path class="st0" d="M385.6,414.3c-1.4,0-2.7-0.5-3.8-1.3l-48.4-38.7c-11.4-8.9-18.5-22.3-19.4-36.8c-1.8-22.3,14.9-41.8,37.2-43.6
	c1.3-0.1,2.6-0.1,3.9-0.1c15.4,0.3,29.8,7.4,39.3,19.5l38.7,48.4c1.9,2.4,1.7,5.9-0.5,8.1l-42.8,42.8
	C388.7,413.7,387.2,414.3,385.6,414.3z M355,305.8c-15.7-0.4-28.7,12-29.1,27.7c0,1.1,0,2.1,0.1,3.2c0.8,11,6.2,21.2,14.9,28
	l44.2,35.3l35.1-35l-35.4-44.2C377.7,311.6,366.7,306.1,355,305.8z"/>
<path class="st0" d="M558.9,563c-6.4,0-12.6-2.5-17.2-7.1L389.8,404c-2.4-2.3-2.4-6.1,0-8.5l0,0l25.7-25.7c2.3-2.4,6.2-2.4,8.5,0
	l0,0l151.9,151.9c9.5,9.4,9.5,24.7,0.1,34.2C571.5,560.4,565.3,563,558.9,563L558.9,563z M402.7,399.7l147.6,147.6
	c4.7,4.7,12.4,4.7,17.1,0c4.7-4.7,4.7-12.4,0-17.1l0,0L419.8,382.6L402.7,399.7z"/>
<rect x="465.1" y="149.9" class="st0" width="24.2" height="24.2"/>
<rect x="489.3" y="125.7" class="st0" width="24.2" height="24.2"/>
<rect x="440.9" y="125.7" class="st0" width="24.2" height="24.2"/>
<rect x="465.1" y="101.5" class="st0" width="24.2" height="24.2"/>
<rect x="53.7" y="549.2" class="st0" width="24.2" height="24.2"/>
<rect x="77.9" y="525.1" class="st0" width="24.2" height="24.2"/>
<rect x="29.5" y="525.1" class="st0" width="24.2" height="24.2"/>
<rect x="53.7" y="500.8" class="st0" width="24.2" height="24.2"/>
</svg>
